<svg id="Group_1" data-name="Group 1" xmlns="http://www.w3.org/2000/svg" xmlns:xlink="http://www.w3.org/1999/xlink" width="550.055" height="151.111" viewBox="0 0 550.055 151.111">
  <defs>
    <linearGradient id="linear-gradient" x1="0.5" x2="0.5" y2="1" gradientUnits="objectBoundingBox">
      <stop offset="0" stop-color="#005bac" />
      <stop offset="1" stop-color="#001b33" />
    </linearGradient>
  </defs>
  <path id="パス_22" data-name="パス 22" d="M117.618,114.885h19.543v7.108H110.067V79.35h27.095v7.107H117.618Z" transform="translate(39.772 28.673)" fill="url(#linear-gradient)" />
  <path id="パス_23" data-name="パス 23" d="M169.791,79.35v42.643H142.7V79.35ZM162.684,86.9H150.246v27.984h12.437Z" transform="translate(51.562 28.673)" fill="url(#linear-gradient)" />
  <path id="パス_24" data-name="パス 24" d="M182.549,114.885h19.543v7.108H175V79.35h7.551Z" transform="translate(63.235 28.673)" fill="url(#linear-gradient)" />
  <path id="パス_25" data-name="パス 25" d="M214.2,114.885h19.545v7.108h-27.1V79.35H214.2Z" transform="translate(74.671 28.673)" fill="url(#linear-gradient)" />
  <path id="パス_26" data-name="パス 26" d="M246.293,86.784V97.445h19.545v7.107H246.293v10.66h19.545v7.108H238.3V79.677h27.095v7.107Z" transform="translate(86.108 28.791)" fill="url(#linear-gradient)" />
  <path id="パス_27" data-name="パス 27" d="M278.478,114.885h19.543v7.108H270.927V79.35h27.095v7.107H278.478Z" transform="translate(97.898 28.673)" fill="url(#linear-gradient)" />
  <path id="パス_28" data-name="パス 28" d="M311.488,86.784H301.272V79.677h27.095v7.107h-9.328v35.091h-7.551Z" transform="translate(108.864 28.791)" fill="url(#linear-gradient)" />
  <path id="パス_29" data-name="パス 29" d="M341.452,79.35H333.9v42.643h7.551Z" transform="translate(120.654 28.673)" fill="url(#linear-gradient)" />
  <path id="パス_30" data-name="パス 30" d="M378.942,79.35v42.643h-27.1V79.35ZM371.835,86.9H359.4v27.984h12.437Z" transform="translate(127.138 28.673)" fill="url(#linear-gradient)" />
  <path id="パス_31" data-name="パス 31" d="M391.7,121.993h-7.551V79.35H391.7l12.437,23.986V79.35h7.108v42.643h-7.108L391.7,97.562Z" transform="translate(138.81 28.673)" fill="url(#linear-gradient)" />
  <path id="パス_32" data-name="パス 32" d="M116.378,100.1l-14.214,3.554C93.725,115.2,80.4,123.2,64.852,123.2a40.151,40.151,0,0,1-16.435-3.109l7.551-8c2.665.888,5.775.888,8.884.888A36.242,36.242,0,0,0,99.5,86.776l19.1,6.219A33.286,33.286,0,0,1,116.378,100.1ZM131.037,81.89c0-1.333.444-2.665.444-4.442a67.793,67.793,0,0,0-1.332-13.326l-9.328,5.33a48.276,48.276,0,0,1,.444,8V81l-20.433-1.777V77.448a36.478,36.478,0,0,0-7.107-21.765l-1.332.444a34.477,34.477,0,0,1,5.33,9.772l-.889.444C97.722,69.9,98.611,73.006,98.611,77v1.333L81.731,77c0,1.333-.444,2.665-.444,4l15.991,5.33A33.315,33.315,0,0,1,65.3,110.762a44.29,44.29,0,0,1-7.107-.888L68.406,99.657,44.863,96.992l-1.777-22.21L23.1,94.771a44.706,44.706,0,0,1-3.554-17.323A45.219,45.219,0,0,1,37.756,41.024l1.332-5.33A47.669,47.669,0,0,1,65.3,28.142H68.85L72.4,33.917a47.231,47.231,0,0,1,15.1,5.33l2.221-1.777A46.788,46.788,0,0,0,74.18,31.7l-3.554-5.774a15.11,15.11,0,0,0-4.442-.444A49,49,0,0,0,40.866,32.14L42.2,26.366a52.894,52.894,0,0,1,23.986-5.33,21.624,21.624,0,0,1,5.33.444l5.33-9.328a79.3,79.3,0,0,0-10.216-.888A66.824,66.824,0,0,0,0,77.892a67.937,67.937,0,0,0,9.328,34.2L2.221,141.856l30.205-6.662a65.564,65.564,0,0,0,33.314,8.884c29.761,0,55.08-19.989,63.519-47.085l4.442,1.333c1.332-5.33,2.666-10.661,2.666-15.991h-5.331Z" transform="translate(0 4.07)" fill="url(#linear-gradient)" />
  <path id="パス_33" data-name="パス 33" d="M491.654,53.055H409.521V9.183h52.544l29.078,23.467V53.565h.511ZM374.831,87.745H326.878L305.452,66.829V61.217h68.869V87.745ZM401.358,0V53.055H383.5V35.2H222.3V17.345h-8.672v70.91h-95.4V44.382h78.053V36.22H118.228V18.365h-8.161V96.927H223.319V69.38l26.527-26.017H376.361v9.183H298.819V95.907h86.725V61.217H403.4v34.69h8.163V61.217h90.3V0Z" transform="translate(39.772)" fill="url(#linear-gradient)" />
</svg>