<svg xmlns="http://www.w3.org/2000/svg" viewBox="0 0 1298.84 181.66"><defs><style>.cls-1{fill:#005bac;}</style></defs><title>traP_logo_full</title><g id="レイヤー_2" data-name="レイヤー 2"><g id="レイヤー_1-2" data-name="レイヤー 1"><path class="cls-1" d="M161.22,122.21l-19.4,4.86A62.61,62.61,0,0,1,68.28,149.2l10.44-10.76a49.1,49.1,0,0,0,59.34-34.1L164.64,113a78.49,78.49,0,0,1-3.42,9.2m20.24-25.36q.19-3,.2-6A91.57,91.57,0,0,0,179.9,73l-12.78,7.1a76.74,76.74,0,0,1,.76,10.78c0,1.63-.06,3.24-.16,4.84L139.9,93.28c0-.81.06-1.63.06-2.45A48.87,48.87,0,0,0,130,61.23l-1.26,1a47.5,47.5,0,0,1,7.12,13.54l-1.41.75a46,46,0,0,1,2.3,14.35c0,.73,0,1.46-.06,2.18L113.8,91a23.16,23.16,0,0,1-.64,5.17L135,103.35a46,46,0,0,1-44.21,33.43,45.39,45.39,0,0,1-9.53-1l13.77-14.19-32.51-3.89L60.08,86.94,32.86,114.37A62.58,62.58,0,0,1,53.14,40.9l1.8-7A66.91,66.91,0,0,1,90.83,23.5c1.58,0,3.14.06,4.69.17h0l4.77,8a59.41,59.41,0,0,1,20.37,7.23l2.68-2.53a62.85,62.85,0,0,0-21.32-8L97.2,20.26Q94,20,90.83,20A70.53,70.53,0,0,0,56.17,29l2-8a76.68,76.68,0,0,1,32.62-7.24c2.37,0,4.71.12,7,.33l7.1-13A92.46,92.46,0,0,0,90.83,0,90.86,90.86,0,0,0,13.08,137.82l-9.43,40.9,41.74-9.23a90.87,90.87,0,0,0,132.35-52.21l6.39,2.09a97.5,97.5,0,0,0,4-22l-6.69-.57Z"/><path class="cls-1" d="M618.15,106.91H530.5V59.55h56.3l31.35,25v22.39ZM493,144.38h-51.4l-22.82-22.07V116.1H493Zm28.28-94v56.55H502.22V87.83H329V68.39h-9.19v76H217.36V97h83.76V87.83H217.36V68.39h-9.19v85.17H329V124.4L357.49,97H493v9.89H409.62v46.65h92.6V116.1h19.09v37.46h9.19V116.1h96.83V50.36Z"/><rect class="cls-1" x="661.18" y="9.72" width="30.62" height="166.82"/><path class="cls-1" d="M715.59,21.31V14.87H742V9.72h12.87v5.15h26.4v6.44h-26.4v3.86h23.82v27h-16l18.56,14.16V79.24l-26.4-20.06V79.24H742V59.18l-26.4,20.06V66.37l18.57-14.16h-16v-27H742V21.31ZM731,45.77h11V41.91H731Zm34.77,0V41.91H754.86v3.86ZM731,31.61v3.86h11V31.61Zm34.77,0H754.86v3.86h10.95Z"/><path class="cls-1" d="M789.84,22.59V16.16H815V9.72h12.87v6.44h25.11v6.43Zm3.86,29.62v-27h55.37v27H827.82V67.66q0,11.58-10.3,11.58h-8.37V72.81q5.8,0,5.8-5.15V52.21Zm12.88-6.44h29.61V31.61H806.58Zm-18,33.47,9-24.46h12.87l-9,24.46Zm65.67,0H841.34l-9-24.46H845.2l9,24.46Z"/><path class="cls-1" d="M864.09,17.44V11H924.6v6.43H900.78V72.81h26.4v6.43H861.51V72.81h26.4V17.44Z"/><path class="cls-1" d="M934.47,79.24V68.94l22.1-11.58h-22.1V50.92h26.4V49H938.33V42.55h22.54V40.62H935.76V34.18h10.3l-2.57-7.72h-7.73V20h5.15l-2.58-10.3h12.24L953.14,20h1.29V9.72h12.23V20H968V9.72h12.23V20h1.29L984,9.72h12.23L993.7,20h5.15v6.44h-7.73l-2.57,7.72h10.3v6.44H973.74v1.93h22.53V49H973.74v1.93h26.4v6.44H978l22.11,11.58v10.3L973.74,65.4V79.24H960.87V65.4l-26.4,13.84ZM975,34.18l2.57-7.72H957l2.58,7.72Z"/><path class="cls-1" d="M1007.43,30.32V23.88h24.36l6.54-14.16h14.16L1046,23.88h27.14v6.44h-25.75l27,48.92h-14.8l-21.36-38.62-17.91,38.62h-14.17l22.64-48.92Z"/><path class="cls-1" d="M1081.68,38V21.31h63.09V38h-12.88V36.11l-9,13.52h23.17v6.44h-24.46v10.3q0,12.87-10.3,12.87h-9V72.81q6.43,0,6.43-6.44V56.07h-28.32V49.63h28.32l6-9H1089.4V38Zm3.86-18-3.86-10.3h11.58l3.87,10.3Zm23.17,0-3.86-10.3h11.59L1120.3,20Zm32.19,0h-11.58l3.86-10.3h11.59L1140.9,20Zm-9,7.72h-37.34v6.44h37.34Z"/><path class="cls-1" d="M737.7,170.73H717.1v-6.44h11.59q7.72,0,7.72-6.44V129.53H714.52v-6.44h46.35v6.44H749.29v28.32Q749.29,170.74,737.7,170.73Zm-19.31-60.51v-6.44H757v6.44Zm43.45,8-5.15-5.58,5.15-5.68,5.15,5.68Zm10.51,0-5.15-5.58,5.15-5.68,5.15,5.68Z"/><path class="cls-1" d="M815.05,170.73H785.44v-6.44h20q8.37,0,8.37-6.44V114.08h12.87v43.77q0,12.89-11.59,12.88Zm-32.18-60.51v-6.44h21.88v6.44Zm0,18V121.8h21.88v6.44ZM819,111.4l-5.15-5.58,5.15-5.69,5.15,5.69Zm10.52,0-5.15-5.58,5.15-5.69,5.15,5.69Z"/><path class="cls-1" d="M850.14,170.73v-6.44h6.44q7.73,0,7.72-7.72V130.82H850.14q0,11.58-12.88,11.58h-6.43V136h1.28c3.44,0,5.15-1.72,5.15-5.15V101.2h12.88v6.44h27v48.93q0,14.16-10.3,14.16Zm14.16-56.65H850.14v10.3H864.3Z"/><path class="cls-1" d="M882.33,170.73l5.15-64.38h12.87l-5.15,64.38Zm20.6,0V101.2H915.8v63.09h1.29c3.43,0,5.15-2.14,5.15-6.44V143.69h12.88v14.16q0,12.89-11.59,12.88Z"/><path class="cls-1" d="M941.34,119.23v-10.3L960,101.2l18.67,7.73v10.3l-12.23-5v5h10.94v24h-22V145h22v25.75H947.78v-5.15h-6.44l2.57-46.35h9.66v-5l-12.23,5ZM980,154V107.64h11.59V154Zm7.73,16.74v-6.44H989c3.43,0,5.15-1.71,5.15-5.15V102.49H1007v56.65q0,11.6-11.58,11.59Zm-33.9-56.65h12.44L960,111.5l-6.22,2.58Zm2.68,11.59-.22,2.57h8.26v-2.57Zm-.54,8.58-.11,2.58h8.69v-2.58Zm4.72,30h3.86V151.42h-3.86Z"/><path class="cls-1" d="M1033.61,170.73h-12.87V135.64l-6.44,13.2V132.1l14.16-30.9h9l-3.86,7.94Zm23.18,0h-12.88v-41.2l-9,18V123.09l10.3-21.89h12.87l-3.86,7.73H1080v6.44h-23.17v10.3h21.88v6.43h-21.88v10.3h21.88v6.44h-21.88v21.89Z"/><path class="cls-1" d="M1087.26,170.73V102.49h65.66v68.24h-12.87v-61.8h-39.92v61.8Zm15.45-51.5v-6.44h34.76v6.44Zm1.29,38.62V123.09h32.18v34.76Zm11.58-6.43h9V129.53h-9Z"/><path class="cls-1" d="M1189.83,108.93v-6.44h33.48L1215.58,127h11.59v6.44h-12.88v24.46q0,12.89-10.3,12.88h-7.72v-6.44c3.43,0,5.15-2.14,5.15-6.44V133.39h-12.88V127h14.16l5.69-18Zm-27,61.8v-6.44h5.15q7.72,0,7.73-7.72V154l-15.45-3.86,1-34.76h-2.25v-6.44h2.36l.21-7.73h11.59l-.21,7.73h14.37v41.52l3.87,1v6.43l-3.87-1q-.11,13.85-10.3,13.84Zm12.88-55.36h-2.9l-.86,31.22,3.76,1Z"/><path class="cls-1" d="M1234.46,142.41V136h63.09v6.44h-34.76l-10,21.88h27.25l-5.68-18h14.16l7.72,24.46h-60.51l12.87-28.32Zm6.44-11.59v-6.44h50.21v6.44Zm-7.73-5.15v-10.3L1266,101.2l32.83,14.17v10.3L1266,111.5Z"/></g></g></svg>